HIERARCHY
ROOT hip
{
	OFFSET 0.000000 0.000000 0.000000
	CHANNELS 6 Xposition Yposition Zposition Xrotation Zrotation Yrotation 
	JOINT abdomen
	{
		OFFSET 0.000000 3.422050 0.000000
		CHANNELS 3 Xrotation Zrotation Yrotation 
		JOINT chest
		{
			OFFSET 0.000000 8.486693 -0.684411
			CHANNELS 3 Xrotation Zrotation Yrotation 
			JOINT neck
			{
				OFFSET 0.000000 10.266162 -0.273764
				CHANNELS 3 Xrotation Zrotation Yrotation 
				JOINT head
				{
					OFFSET 0.000000 3.148285 0.000000
					CHANNELS 3 Xrotation Zrotation Yrotation 
					End Site
					{
						OFFSET 0.000000 3.148289 0.000000
					}
				}
			}
			JOINT lCollar
			{
				OFFSET 3.422053 6.707223 -0.821293
				CHANNELS 3 Yrotation Zrotation Xrotation 
				JOINT lShldr
				{
					OFFSET 3.285171 0.000000 0.000000
					CHANNELS 3 Zrotation Yrotation Xrotation 
					JOINT lForeArm
					{
						OFFSET 10.129278 0.000000 0.000000
						CHANNELS 3 Yrotation Zrotation Xrotation 
						JOINT lHand
						{
							OFFSET 8.486692 0.000000 0.000000
							CHANNELS 3 Zrotation Yrotation Xrotation 
							End Site
							{
								OFFSET 4.106464 0.000000 0.000000
							}
						}
					}
				}
			}
			JOINT rCollar
			{
				OFFSET -3.558935 6.707223 -0.821293
				CHANNELS 3 Yrotation Zrotation Xrotation 
				JOINT rShldr
				{
					OFFSET -3.148289 0.000000 0.000000
					CHANNELS 3 Zrotation Yrotation Xrotation 
					JOINT rForeArm
					{
						OFFSET -10.266159 0.000000 0.000000
						CHANNELS 3 Yrotation Zrotation Xrotation 
						JOINT rHand
						{
							OFFSET -8.349810 0.000000 0.000000
							CHANNELS 3 Zrotation Yrotation Xrotation 
							End Site
							{
								OFFSET -4.106464 0.000000 0.000000
							}
						}
					}
				}
			}
		}
	}
	JOINT lThigh
	{
		OFFSET 5.338403 -1.642589 1.368821
		CHANNELS 3 Xrotation Zrotation Yrotation 
		JOINT lShin
		{
			OFFSET -2.053232 -20.121670 0.000000
			CHANNELS 3 Xrotation Zrotation Yrotation 
			JOINT lFoot
			{
				OFFSET 0.000000 -19.300380 -1.231939
				CHANNELS 3 Xrotation Yrotation Zrotation 
				End Site
				{
					OFFSET 0.000000 -2.463878 4.653993
				}
			}
		}
	}
	JOINT rThigh
	{
		OFFSET -5.338403 -1.642589 1.368821
		CHANNELS 3 Xrotation Zrotation Yrotation 
		JOINT rShin
		{
			OFFSET 2.053232 -20.121670 0.000000
			CHANNELS 3 Xrotation Zrotation Yrotation 
			JOINT rFoot
			{
				OFFSET 0.000000 -19.300380 -1.231939
				CHANNELS 3 Xrotation Yrotation Zrotation 
				End Site
				{
					OFFSET 0.000000 -2.463878 4.653993
				}
			}
		}
	}
}
MOTION
Frames: 19
Frame Time: 0.050000
0.000000 43.528500 0.000000 0.000000 0.000000 0.000000 0.000000 0.000000 0.000000 0.000000 0.000000 0.000000 0.000000 0.000000 0.000000 0.000000 0.000000 0.000000 0.000000 0.000000 0.000000 0.000000 0.000000 0.000000 0.000000 0.000000 0.000000 0.000000 0.000000 0.000000 0.000000 0.000000 0.000000 0.000000 0.000000 0.000000 0.000000 0.000000 0.000000 0.000000 0.000000 0.000000 0.000000 0.000000 0.000000 0.000000 0.000000 0.000000 0.000000 0.000000 0.000000 0.000000 0.000000 0.000000 0.000000 0.000000 0.000000 0.000000 0.000000 0.000000 
-0.075092 50.211811 0.705868 -173.005142 0.000000 180.000000 -5.287482 -0.123026 -0.276140 -20.933128 -0.537474 -0.859148 16.997015 0.000000 0.000000 -9.002075 0.000000 0.000000 23.126305 -15.064467 20.072660 -5.662419 -76.635788 6.003509 -57.188492 -6.200081 -19.017559 -22.611618 -16.869638 -47.564178 -22.842676 12.244814 17.761871 -2.492728 86.450859 -1.740634 51.749500 3.056797 -19.308416 25.943069 22.934641 -44.393929 -96.825325 24.304010 -14.895692 98.244469 -59.142124 1.391649 33.355759 -17.975723 18.752439 -93.541107 -25.253422 12.937343 72.563751 59.950832 -22.225563 33.355305 17.971390 -18.754663 
-0.075092 50.211811 0.705868 -173.003830 0.000000 180.000000 -5.287483 -0.123026 -0.276140 -20.219536 -0.537467 -0.859227 17.710556 0.000000 0.000000 -11.055886 0.000000 0.000000 23.162159 -15.074015 19.592691 -5.662419 -76.635788 6.003510 -57.904446 -6.222551 -19.092520 -22.270912 -16.637913 -47.687733 -23.008709 12.294589 17.268051 -2.492728 86.450935 -1.740633 52.567295 3.067501 -19.351166 25.596783 22.654968 -44.565487 -96.386925 24.599701 -14.641042 98.919525 -59.080795 0.802959 33.040318 -18.332045 19.074627 -93.076843 -25.578575 12.496708 72.563751 59.950832 -22.225563 33.236382 18.339193 -19.208351 
-0.075092 50.211811 0.705868 -173.003830 0.000000 180.000000 -5.287482 -0.123026 -0.276140 -19.505610 -0.537459 -0.859307 18.424431 0.000000 0.000000 -13.117756 0.000000 0.000000 23.197935 -15.083853 19.112602 -5.662419 -76.635788 6.003509 -58.620770 -6.244095 -19.167788 -21.931080 -16.405443 -47.809692 -23.174374 12.345775 16.774141 -2.492722 86.450783 -1.740628 53.385616 3.077599 -19.394094 25.252043 22.374296 -44.734886 -95.945946 24.893671 -14.383240 99.592194 -59.015923 0.216726 32.726215 -18.690168 19.395523 -92.608429 -25.900585 12.051828 72.563736 59.950817 -22.225554 33.120243 18.708012 -19.662376 
-0.075092 50.211811 0.705868 -173.003830 0.000000 180.000000 -5.287482 -0.123026 -0.276140 -18.791401 -0.537449 -0.859386 19.138578 0.000000 0.000000 -15.186390 0.000000 0.000000 23.233639 -15.093986 18.632414 -5.662419 -76.635788 6.003509 -59.337425 -6.264712 -19.243355 -21.592133 -16.172266 -47.930103 -23.339645 12.398363 16.280172 -2.492728 86.450859 -1.740634 54.204342 3.087090 -19.437178 24.908840 22.092648 -44.902142 -95.502357 25.185879 -14.122280 100.262268 -58.947510 -0.366905 32.413483 -19.050064 19.715126 -92.135780 -26.219368 11.602680 72.563736 59.950825 -22.225565 33.006912 19.077805 -20.116747 
-0.075092 50.211811 0.705868 -173.003830 0.000000 180.000000 -5.287482 -0.123026 -0.276140 -18.076979 -0.537439 -0.859465 19.852957 0.000000 0.000000 -17.260468 0.000000 0.000000 23.269257 -15.104408 18.152134 -5.662419 -76.635788 6.003509 -60.054371 -6.284397 -19.319208 -21.254059 -15.938385 -48.048943 -23.504522 12.452358 15.786169 -2.492734 86.450943 -1.740639 55.023441 3.095967 -19.480417 24.567177 21.810053 -45.067276 -95.056168 25.476290 -13.858149 100.929634 -58.875568 -0.947809 32.102116 -19.411684 20.033419 -91.658989 -26.534863 11.149289 72.563751 59.950832 -22.225563 32.896404 19.448519 -20.571470 
-0.075092 50.211811 0.705868 -173.003830 0.000000 180.000000 -5.287482 -0.123026 -0.276140 -17.362383 -0.537428 -0.859544 20.567495 0.000000 0.000000 -19.338646 0.000000 0.000000 23.304789 -15.115118 17.671783 -5.662419 -76.635788 6.003509 -60.771542 -6.303136 -19.395317 -20.916853 -15.703815 -48.166218 -23.668966 12.507741 15.292150 -2.492728 86.450859 -1.740634 55.842800 3.104229 -19.523792 24.227030 21.526529 -45.230282 -94.607368 25.764862 -13.590849 101.594223 -58.800163 -1.525869 31.792128 -19.774994 20.350388 -91.178017 -26.847000 10.691645 72.563751 59.950832 -22.225563 32.788761 19.820120 -21.026569 
-0.075092 50.211811 0.705868 -173.003830 0.000000 180.000000 -5.287482 -0.123026 -0.276140 -16.647678 -0.537416 -0.859624 21.282145 0.000000 0.000000 -21.419565 0.000000 0.000000 23.340229 -15.126115 17.191380 -5.662419 -76.635788 6.003509 -61.488861 -6.320931 -19.471674 -20.580519 -15.468580 -48.281937 -23.832968 12.564516 14.798142 -2.492728 86.450859 -1.740634 56.662327 3.111875 -19.567287 23.888384 21.242090 -45.391155 -94.155922 26.051544 -13.320360 102.255829 -58.721268 -2.100932 31.483536 -20.139957 20.666033 -90.692879 -27.155712 10.229760 72.563751 59.950832 -22.225563 32.683990 20.192554 -21.482054 
-0.075092 50.211811 0.705868 -173.003830 0.000000 180.000000 -5.287482 -0.123026 -0.276140 -15.932922 -0.537403 -0.859703 21.996849 0.000000 0.000000 -23.501856 0.000000 0.000000 23.375576 -15.137400 16.710941 -5.662419 -76.635788 6.003509 -62.206291 -6.337777 -19.548260 -20.245049 -15.232686 -48.396088 -23.996513 12.622669 14.304172 -2.492728 86.450859 -1.740634 57.481964 3.118896 -19.610897 23.551243 20.956774 -45.549950 -93.701859 26.336315 -13.046687 102.914391 -58.638977 -2.672892 31.176344 -20.506531 20.980341 -90.203590 -27.460928 9.763645 72.563751 59.950832 -22.225563 32.582134 20.565784 -21.937939 
-0.075092 50.211811 0.705868 -173.003830 0.000000 180.000000 -5.287483 -0.123026 -0.276140 -15.218162 -0.537388 -0.859781 22.711557 0.000000 0.000000 -25.584152 0.000000 0.000000 23.410828 -15.148971 16.230484 -5.662420 -76.635803 6.003510 -62.923759 -6.353665 -19.625050 -19.910439 -14.996154 -48.508682 -24.159567 12.682197 13.810256 -2.492728 86.450935 -1.740633 58.301601 3.125295 -19.654600 23.215580 20.670588 -45.706631 -93.245171 26.619123 -12.769828 103.569778 -58.553288 -3.241639 30.870564 -20.874670 21.293299 -89.710136 -27.762583 9.293304 72.563751 59.950840 -22.225567 32.483208 20.939766 -22.394243 
-0.075092 50.211811 0.705868 -173.003830 0.000000 180.000000 -5.287483 -0.123026 -0.276140 -14.503454 -0.537373 -0.859860 23.426207 0.000000 0.000000 -27.665073 0.000000 0.000000 23.445976 -15.160826 15.750026 -5.662419 -76.635788 6.003509 -63.641224 -6.368598 -19.702032 -19.576679 -14.758994 -48.619713 -24.322121 12.743090 13.316423 -2.492728 86.450859 -1.740634 59.121170 3.131068 -19.698387 22.881392 20.383558 -45.861217 -92.785835 26.899935 -12.489769 104.221817 -58.464188 -3.807032 30.566210 -21.244347 21.604908 -89.212578 -28.060608 8.818761 72.563751 59.950832 -22.225563 32.387241 21.314451 -22.850986 
-0.075092 50.211811 0.705868 -173.003830 0.000000 180.000000 -5.287482 -0.123026 -0.276140 -13.788861 -0.537357 -0.859938 24.140749 0.000000 0.000000 -29.743254 0.000000 0.000000 23.481024 -15.172963 15.269583 -5.662419 -76.635788 6.003509 -64.358604 -6.382572 -19.779190 -19.243776 -14.521228 -48.729195 -24.484159 12.805342 12.822696 -2.492728 86.450859 -1.740634 59.940567 3.136214 -19.742239 22.548670 20.095707 -46.013733 -92.323830 27.178699 -12.206511 104.870468 -58.371754 -4.368994 30.263285 -21.615517 21.915157 -88.710884 -28.354937 8.340026 72.563751 59.950832 -22.225563 32.294243 21.689787 -23.308165 
-0.075092 50.211811 0.705868 -173.003830 0.000000 180.000000 -5.287482 -0.123026 -0.276140 -13.074435 -0.537340 -0.860016 24.855116 0.000000 0.000000 -31.817329 0.000000 0.000000 23.515963 -15.185386 14.789173 -5.662419 -76.635788 6.003509 -65.075851 -6.395576 -19.856491 -18.911726 -14.282868 -48.837128 -24.645658 12.868946 12.329098 -2.492728 86.450859 -1.740634 60.759731 3.140733 -19.786152 22.217392 19.807055 -46.164173 -91.859184 27.455379 -11.920050 105.515625 -58.276035 -4.927400 29.961794 -21.988132 22.224031 -88.205093 -28.645493 7.857116 72.563751 59.950832 -22.225563 32.204254 22.065737 -23.765814 
-0.075092 50.211811 0.705868 -173.003830 0.000000 180.000000 -5.287482 -0.123026 -0.276140 -12.360230 -0.537322 -0.860094 25.569275 0.000000 0.000000 -33.885967 0.000000 0.000000 23.550787 -15.198085 14.308813 -5.662419 -76.635788 6.003509 -65.792923 -6.407618 -19.933937 -18.580515 -14.043930 -48.943501 -24.806602 12.933888 11.835652 -2.492728 86.450859 -1.740634 61.578568 3.144624 -19.830105 21.887558 19.517626 -46.312561 -91.391884 27.729946 -11.630392 106.157166 -58.177040 -5.482156 29.661753 -22.362162 22.531530 -87.695221 -28.932220 7.370057 72.563751 59.950832 -22.225563 32.117298 22.442257 -24.223951 
-0.075092 50.211811 0.705868 -173.003830 0.000000 180.000000 -5.287482 -0.123026 -0.276140 -11.646303 -0.537303 -0.860172 26.283150 0.000000 0.000000 -35.947834 0.000000 0.000000 23.585491 -15.211063 13.828518 -5.662419 -76.635788 6.003509 -66.509750 -6.418692 -20.011503 -18.250151 -13.804432 -49.048336 -24.966970 13.000169 11.342383 -2.492728 86.450859 -1.740634 62.396996 3.147882 -19.874090 21.559149 19.227442 -46.458900 -90.921944 28.002348 -11.337530 106.794998 -58.074783 -6.033172 29.363161 -22.737558 22.837645 -87.181305 -29.215048 6.878877 72.563751 59.950832 -22.225563 32.033401 22.819294 -24.682585 
-0.075092 50.211811 0.705868 -173.003830 0.000000 180.000000 -5.287482 -0.123026 -0.276140 -10.932709 -0.537283 -0.860249 26.996685 0.000000 0.000000 -38.001648 0.000000 0.000000 23.620083 -15.224321 13.348310 -5.662419 -76.635788 6.003509 -67.226273 -6.428793 -20.089161 -17.920616 -13.564386 -49.151627 -25.126736 13.067767 10.849307 -2.492728 86.450859 -1.740634 63.214931 3.150515 -19.918089 21.232155 18.936520 -46.603195 -90.449333 28.272554 -11.041469 107.428970 -57.969292 -6.580329 29.066042 -23.114290 23.142374 -86.663383 -29.493921 6.383602 72.563751 59.950832 -22.225563 31.952574 23.196804 -25.141739 
-0.075092 50.211811 0.705868 -173.003830 0.000000 180.000000 -5.287482 -0.123026 -0.276140 -11.646305 -0.537303 -0.860172 26.283148 0.000000 0.000000 -35.947834 0.000000 0.000000 23.585491 -15.211063 13.828517 -5.662419 -76.635788 6.003509 -66.509750 -6.418692 -20.011503 -18.250153 -13.804435 -49.048347 -24.966969 13.000169 11.342382 -2.492728 86.450859 -1.740634 62.396996 3.147882 -19.874090 21.559145 19.227440 -46.458900 -90.921936 28.002348 -11.337528 106.794991 -58.074783 -6.033167 29.363161 -22.737558 22.837645 -87.181305 -29.215048 6.878877 72.563751 59.950832 -22.225563 32.033398 22.819294 -24.682583 
-0.075092 50.211811 0.705868 -173.003830 0.000000 180.000000 -5.287482 -0.123026 -0.276140 -12.360230 -0.537322 -0.860094 25.569271 0.000000 0.000000 -33.885960 0.000000 0.000000 23.550781 -15.198083 14.308810 -5.662419 -76.635788 6.003509 -65.792915 -6.407618 -19.933933 -18.580515 -14.043930 -48.943501 -24.806602 12.933890 11.835652 -2.492728 86.450859 -1.740634 61.578568 3.144624 -19.830105 21.887558 19.517628 -46.312561 -91.391884 27.729946 -11.630392 106.157166 -58.177040 -5.482156 29.661753 -22.362162 22.531530 -87.695221 -28.932220 7.370059 72.563751 59.950832 -22.225563 32.117298 22.442257 -24.223951 
-0.075092 50.211811 0.705868 -173.003830 0.000000 180.000000 -5.287482 -0.123026 -0.276140 -13.074434 -0.537340 -0.860016 24.855116 0.000000 0.000000 -31.817329 0.000000 0.000000 23.515959 -15.185384 14.789171 -5.662419 -76.635788 6.003509 -65.075851 -6.395576 -19.856491 -18.911726 -14.282868 -48.837128 -24.645657 12.868943 12.329097 -2.492728 86.450859 -1.740634 60.759731 3.140733 -19.786150 22.217392 19.807055 -46.164173 -91.859184 27.455379 -11.920050 105.515617 -58.276028 -4.927395 29.961794 -21.988132 22.224031 -88.205093 -28.645493 7.857116 72.563751 59.950832 -22.225563 32.204254 22.065737 -23.765814 
